<svg width="30" height="30" viewBox="0 0 30 30" fill="none" xmlns="http://www.w3.org/2000/svg">
<path d="M26.25 8.4375C26.25 5.84766 24.1523 3.75 21.5625 3.75C18.9727 3.75 16.875 5.84766 16.875 8.4375C16.875 10.5703 18.2988 12.3691 20.2441 12.9375C20.209 13.8809 19.998 14.6074 19.5996 15.0996C18.6973 16.2246 16.7109 16.4121 14.6074 16.6055C12.9551 16.7578 11.2441 16.9219 9.84375 17.5957V9.1582C11.748 8.56055 13.125 6.78516 13.125 4.6875C13.125 2.09766 11.0273 0 8.4375 0C5.84766 0 3.75 2.09766 3.75 4.6875C3.75 6.78516 5.12695 8.56055 7.03125 9.1582V20.8359C5.12695 21.4395 3.75 23.2148 3.75 25.3125C3.75 27.9023 5.84766 30 8.4375 30C11.0273 30 13.125 27.9023 13.125 25.3125C13.125 23.3203 11.8828 21.6152 10.125 20.9414C10.3066 20.6367 10.582 20.3672 10.998 20.1562C11.9473 19.6758 13.3652 19.5469 14.8711 19.4062C17.3438 19.1777 20.1445 18.9141 21.7969 16.8633C22.6172 15.8437 23.0332 14.5312 23.0625 12.8848C24.9141 12.252 26.25 10.5 26.25 8.4375ZM8.4375 3.75C8.95312 3.75 9.375 4.17188 9.375 4.6875C9.375 5.20312 8.95312 5.625 8.4375 5.625C7.92188 5.625 7.5 5.20312 7.5 4.6875C7.5 4.17188 7.92188 3.75 8.4375 3.75ZM8.4375 26.25C7.92188 26.25 7.5 25.8281 7.5 25.3125C7.5 24.7969 7.92188 24.375 8.4375 24.375C8.95312 24.375 9.375 24.7969 9.375 25.3125C9.375 25.8281 8.95312 26.25 8.4375 26.25ZM21.5625 7.5C22.0781 7.5 22.5 7.92188 22.5 8.4375C22.5 8.95312 22.0781 9.375 21.5625 9.375C21.0469 9.375 20.625 8.95312 20.625 8.4375C20.625 7.92188 21.0469 7.5 21.5625 7.5Z" fill="white"/>
</svg>
