<svg width="28" height="28" viewBox="0 0 28 28" fill="none" xmlns="http://www.w3.org/2000/svg">
<g clip-path="url(#clip0_336_429)">
<path d="M0 22.1648V24.5C0 26.4305 4.70312 28 10.5 28C16.2969 28 21 26.4305 21 24.5V22.1648C18.7414 23.7562 14.6125 24.5 10.5 24.5C6.3875 24.5 2.25859 23.7562 0 22.1648ZM17.5 7C23.2969 7 28 5.43047 28 3.5C28 1.56953 23.2969 0 17.5 0C11.7031 0 7 1.56953 7 3.5C7 5.43047 11.7031 7 17.5 7ZM0 16.4281V19.25C0 21.1805 4.70312 22.75 10.5 22.75C16.2969 22.75 21 21.1805 21 19.25V16.4281C18.7414 18.2875 14.607 19.25 10.5 19.25C6.39297 19.25 2.25859 18.2875 0 16.4281ZM22.75 17.0297C25.8836 16.4227 28 15.2961 28 14V11.6648C26.7313 12.5617 24.8664 13.1742 22.75 13.5516V17.0297ZM10.5 8.75C4.70312 8.75 0 10.7078 0 13.125C0 15.5422 4.70312 17.5 10.5 17.5C16.2969 17.5 21 15.5422 21 13.125C21 10.7078 16.2969 8.75 10.5 8.75ZM22.493 11.8289C25.7742 11.2383 28 10.0789 28 8.75V6.41484C26.0586 7.7875 22.7227 8.52578 19.2117 8.70078C20.825 9.48281 22.0117 10.5328 22.493 11.8289Z" fill="white"/>
</g>
<defs>
<clipPath id="clip0_336_429">
<rect width="28" height="28" fill="white"/>
</clipPath>
</defs>
</svg>
